<svg width="25" height="24" viewBox="0 0 25 24" fill="none" xmlns="http://www.w3.org/2000/svg">
<path d="M20.5 12V18C20.5 20.21 18.71 22 16.5 22H8.5C6.29 22 4.5 20.21 4.5 18V12C4.5 11.45 4.95 11 5.5 11H7.47C8.02 11 8.47 11.45 8.47 12V15.14C8.47 15.88 8.88 16.56 9.53 16.91C9.82 17.07 10.14 17.15 10.47 17.15C10.85 17.15 11.23 17.04 11.56 16.82L12.51 16.2L13.39 16.79C14 17.2 14.78 17.25 15.43 16.9C16.09 16.55 16.5 15.88 16.5 15.13V12C16.5 11.45 16.95 11 17.5 11H19.5C20.05 11 20.5 11.45 20.5 12Z" fill="#9197A1"/>
<path d="M22 7V8C22 9.1 21.47 10 20 10H5C3.47 10 3 9.1 3 8V7C3 5.9 3.47 5 5 5H20C21.47 5 22 5.9 22 7Z" fill="#9197A1"/>
<path d="M12.14 4.99994H6.62003C6.28003 4.62994 6.29003 4.05994 6.65003 3.69994L8.07003 2.27994C8.44003 1.90994 9.05003 1.90994 9.42003 2.27994L12.14 4.99994Z" fill="#9197A1"/>
<path d="M18.37 4.99994H12.85L15.57 2.27994C15.94 1.90994 16.55 1.90994 16.92 2.27994L18.34 3.69994C18.7 4.05994 18.71 4.62994 18.37 4.99994Z" fill="#9197A1"/>
<path d="M14.4699 11C15.0199 11 15.4699 11.45 15.4699 12V15.13C15.4699 15.93 14.5799 16.41 13.9199 15.96L13.0199 15.36C12.6899 15.14 12.2599 15.14 11.9199 15.36L10.9799 15.98C10.3199 16.42 9.43994 15.94 9.43994 15.15V12C9.43994 11.45 9.88994 11 10.4399 11H14.4699Z" fill="#9197A1"/>
</svg>
