<svg width="20" height="17" viewBox="0 0 20 17" fill="none" xmlns="http://www.w3.org/2000/svg">
<path d="M10.1577 14.52H4.91773L4.07773 17H0.497734L5.57773 2.96H9.53773L14.6177 17H10.9977L10.1577 14.52ZM9.27773 11.88L7.53773 6.74L5.81773 11.88H9.27773ZM17.8838 4.68C17.2838 4.68 16.7905 4.50667 16.4038 4.16C16.0305 3.8 15.8438 3.36 15.8438 2.84C15.8438 2.30667 16.0305 1.86667 16.4038 1.52C16.7905 1.16 17.2838 0.979999 17.8838 0.979999C18.4705 0.979999 18.9505 1.16 19.3238 1.52C19.7105 1.86667 19.9038 2.30667 19.9038 2.84C19.9038 3.36 19.7105 3.8 19.3238 4.16C18.9505 4.50667 18.4705 4.68 17.8838 4.68ZM19.5838 5.84V17H16.1638V5.84H19.5838Z" fill="#9197A1"/>
</svg>
