<svg width="25" height="24" viewBox="0 0 25 24" fill="none" xmlns="http://www.w3.org/2000/svg">
<path d="M20.1585 9.70128L13.1585 3.57628C12.7815 3.24638 12.2185 3.24638 11.8415 3.57628L4.8415 9.70128C4.62448 9.89117 4.5 10.1655 4.5 10.4539V19.0001C4.5 19.5524 4.94772 20.0001 5.5 20.0001H9.5C10.0523 20.0001 10.5 19.5524 10.5 19.0001V16.0001C10.5 15.4478 10.9477 15.0001 11.5 15.0001H13.5C14.0523 15.0001 14.5 15.4478 14.5 16.0001V19.0001C14.5 19.5524 14.9477 20.0001 15.5 20.0001H19.5C20.0523 20.0001 20.5 19.5524 20.5 19.0001V10.4539C20.5 10.1655 20.3755 9.89117 20.1585 9.70128Z" fill="#9197A1"/>
</svg>
