<svg width="25" height="24" viewBox="0 0 25 24" fill="none" xmlns="http://www.w3.org/2000/svg">
<path fill-rule="evenodd" clip-rule="evenodd" d="M7.68369 5.19954C7.91026 5.91338 8.32554 6.58398 8.79213 7.16477C8.30311 7.5605 7.78381 8.04155 7.24407 8.62364C4.20904 11.8968 1.74584 15.4529 2.71353 18.7665C3.50817 20.6877 4.70045 21.9147 10.1472 21.996L10.1467 21.9993H10.4573C10.6424 22.0006 10.8322 22.0006 11.0268 21.9993H13.9735C14.1682 22.0006 14.3579 22.0006 14.543 21.9993H14.8536L14.8531 21.996C20.2999 21.9147 21.4922 20.6877 22.2868 18.7665C23.2545 15.4529 20.7913 11.8968 17.7563 8.62364C17.2682 8.09727 16.7968 7.65352 16.3494 7.28077C16.9316 6.47297 17.4966 5.56568 17.7649 4.93441C18.2909 3.69705 18.5539 2.10616 17.4143 2.10616C16.8522 2.10616 16.0128 2.36421 15.1275 2.63634C14.2181 2.91591 13.2603 3.21035 12.5051 3.25514C11.6574 3.30542 10.9515 2.9553 10.2584 2.61151C9.73301 2.35092 9.21495 2.09397 8.64799 2.01776C7.33304 1.84099 6.98238 2.98997 7.68369 5.19954ZM17.067 12.0361C17.4062 12.1509 17.583 12.5043 17.4618 12.8255L17.0121 14.0181C17.2913 14.0931 17.5 14.3923 17.5 14.75C17.5 15.1642 17.2202 15.5 16.875 15.5H16.4533L15.288 18.5901C15.1953 18.8359 14.9494 19 14.6738 19C14.3982 19 14.1524 18.8359 14.0597 18.5901L12.8944 15.5H12.123L10.979 18.5869C10.8877 18.8332 10.6428 18.9986 10.3672 19C10.0916 19.0014 9.8448 18.8386 9.75069 18.5933L8.5641 15.5H8.125C7.77982 15.5 7.5 15.1642 7.5 14.75C7.5 14.3893 7.71218 14.0881 7.99493 14.0163L7.53938 12.8287C7.41639 12.5081 7.59112 12.1538 7.92964 12.0373C8.26817 11.9208 8.6423 12.0863 8.76528 12.4069L9.3764 14H11.2966L11.8847 12.4133C11.9761 12.1664 12.222 12.0009 12.4982 12.0002C12.7745 11.9995 13.0212 12.1637 13.1142 12.4101L13.7137 14H15.6339L16.2335 12.4101C16.3547 12.0888 16.7278 11.9214 17.067 12.0361ZM14.2794 15.5H15.0683L14.6738 16.546L14.2794 15.5ZM9.95181 15.5H10.7407L10.3531 16.546L9.95181 15.5Z" fill="#B1B8C0"/>
</svg>
